<?xml version="1.0" encoding="utf-8"?>
<!-- Generator: Adobe Illustrator 25.4.1, SVG Export Plug-In . SVG Version: 6.00 Build 0)  -->
<svg version="1.1" id="Layer_1" xmlns="http://www.w3.org/2000/svg" xmlns:xlink="http://www.w3.org/1999/xlink" x="0px" y="0px"
	 viewBox="0 0 180 180" style="enable-background:new 0 0 180 180;" xml:space="preserve">
<style type="text/css">
	.st0{clip-path:url(#SVGID_00000017476402040347157260000000567378801222589582_);}
	.st1{fill:none;}
	.st2{fill:#FFFFFF;}
</style>
<g>
	<defs>
		<rect id="SVGID_1_" y="0" width="180" height="180"/>
	</defs>
	<clipPath id="SVGID_00000130619810939581533780000012414737761554574495_">
		<use xlink:href="#SVGID_1_"  style="overflow:visible;"/>
	</clipPath>
	<g style="clip-path:url(#SVGID_00000130619810939581533780000012414737761554574495_);">
		<path class="st1" d="M37,0h106c20.4,0,37,16.6,37,37v106c0,20.4-16.6,37-37,37H37c-20.4,0-37-16.6-37-37V37C0,16.6,16.6,0,37,0z"
			/>
	</g>
</g>
<g>
	<path class="st2" d="M22.5,118.6h-5.4l-0.7,1.6h-1.2l4.6-10h0.1l4.6,10h-1.2L22.5,118.6z M22.1,117.7l-2.3-5.1l-2.3,5.1H22.1z"/>
	<path class="st2" d="M53.3,115.7c0,2.8-2.1,4.7-4.7,4.7c-2.8,0-5.1-2.3-5.1-5.1c0-2.8,2.3-5.1,5.1-5.1c1.2,0,2.7,0.6,3.6,1.5
		l-0.6,0.9c-0.8-0.8-2-1.3-3-1.3c-2.1,0-3.9,1.7-3.9,4c0,2.2,1.7,3.9,4,3.9c1.9,0,3.5-1.3,3.5-3c0-0.1,0-0.1,0-0.2h-3.5v-1h4.7
		C53.2,115.2,53.3,115.5,53.3,115.7z"/>
	<path class="st2" d="M75.1,111.5v3.1h4.1v1.1h-4.1v3.4h4.7v1.1H74v-9.9h5.8v1.1H75.1z"/>
	<path class="st2" d="M108.8,110.4v10.1h-0.1l-6.8-7.5v7.4h-1.1v-10.1h0.1l6.8,7.5v-7.4H108.8z"/>
	<path class="st2" d="M129.5,115.3c0-2.8,2.3-5.1,5.1-5.1c1.3,0,2.5,0.6,3.4,1.5l-0.7,0.9c-0.7-0.7-1.7-1.2-2.8-1.2
		c-2,0-3.9,1.7-3.9,4c0,2.2,1.9,3.9,3.9,3.9c1.1,0,2.1-0.5,2.8-1.2l0.6,0.9c-0.8,0.8-1.9,1.5-3.4,1.5
		C131.9,120.4,129.5,118.1,129.5,115.3z"/>
	<path class="st2" d="M161.2,116.1l-3.5-5.7h1.3l2.8,4.4l2.8-4.4h1.3l-3.5,5.7v4.2h-1.1V116.1z"/>
</g>
<g>
	<path class="st2" d="M58.4,61.4V86c0,13.7-7.6,23.6-21.6,23.6c-14.1,0-21.6-9.9-21.6-23.6V61.4h9.7V86c0,10.2,4.5,14.9,12,14.9
		c7,0,11.9-4.7,11.9-14.9V61.4H58.4z"/>
	<path class="st2" d="M105,84.6c4.1,1.1,7.5,4.8,7.5,10.4c0,8.6-6.8,13.6-16.5,13.6H69.2V61.4h25.7c10.6,0,16.5,5,16.5,13.7
		C111.4,79.5,108.9,83.1,105,84.6L105,84.6z M78.9,80.9H94c5.7,0,7.6-1.8,7.6-5.3c0-3.5-2.2-5.5-7.6-5.5H78.9V80.9z M102.7,94.7
		c0-3.8-2-5.7-7.6-5.7H78.9V100h16.2C100.8,100,102.7,98.3,102.7,94.7z"/>
	<path class="st2" d="M165.3,100.8c-4.5,5.4-11.6,8.8-20.3,8.8c-15.3,0-25.9-10.9-25.9-24.6c0-14.2,10.9-24.7,25.9-24.7
		c8.6,0,15.7,3.3,20.3,8.8l-7.3,5.4c-2.8-3.5-7.2-5.6-13-5.6c-10.3,0-16.1,6.3-16.1,16.1c-0.1,9.5,6,16,16.2,16
		c5.7,0,10.1-2,12.9-5.5L165.3,100.8z"/>
</g>
</svg>
