<?xml version="1.0" encoding="utf-8"?>
<!-- Generator: Adobe Illustrator 25.4.1, SVG Export Plug-In . SVG Version: 6.00 Build 0)  -->
<svg version="1.1" id="Layer_1" xmlns="http://www.w3.org/2000/svg" xmlns:xlink="http://www.w3.org/1999/xlink" x="0px" y="0px"
	 viewBox="0 0 215 48" style="enable-background:new 0 0 215 48;" xml:space="preserve">
<style type="text/css">
	.st0{fill:#123F4C;}
</style>
<g>
	<g>
		<path class="st0" d="M59.1,46.5h-4.4l-0.6,1.3h-1l3.7-8.2h0.1l3.7,8.2h-1L59.1,46.5z M58.7,45.7l-1.8-4.1L55,45.7H58.7z"/>
		<path class="st0" d="M84.1,44.1c0,2.3-1.7,3.8-3.8,3.8c-2.3,0-4.2-1.9-4.2-4.1s1.9-4.1,4.1-4.1c1,0,2.2,0.5,2.9,1.2l-0.5,0.8
			C82,41,81,40.6,80.2,40.6c-1.7,0-3.2,1.4-3.2,3.2c0,1.8,1.4,3.2,3.3,3.2c1.6,0,2.8-1.1,2.8-2.5c0-0.1,0-0.1,0-0.2h-2.9v-0.8H84
			C84.1,43.7,84.1,43.9,84.1,44.1z"/>
		<path class="st0" d="M101.9,40.7v2.5h3.3v0.9h-3.3v2.8h3.8v0.9H101v-8.1h4.7v0.9H101.9z"/>
		<path class="st0" d="M129.3,39.8V48h0l-5.5-6.1v6h-0.9v-8.2h0.1l5.5,6.1v-6H129.3z"/>
		<path class="st0" d="M146.2,43.8c0-2.3,1.9-4.1,4.1-4.1c1,0,2,0.5,2.8,1.2l-0.5,0.7c-0.6-0.6-1.4-1-2.3-1c-1.6,0-3.2,1.4-3.2,3.2
			c0,1.8,1.5,3.2,3.2,3.2c0.9,0,1.7-0.4,2.3-1l0.5,0.7c-0.7,0.7-1.6,1.2-2.8,1.2C148.1,47.9,146.2,46.1,146.2,43.8z"/>
		<path class="st0" d="M172,44.4l-2.8-4.6h1l2.3,3.6l2.3-3.6h1l-2.9,4.6v3.4H172V44.4z"/>
	</g>
	<g>
		<path class="st0" d="M118,6.4v13.2c0,7.4-4.1,12.7-11.6,12.7c-7.6,0-11.6-5.3-11.6-12.7V6.4h5.2v13.2c0,5.5,2.4,8,6.4,8
			c3.8,0,6.4-2.5,6.4-8V6.4H118z"/>
		<path class="st0" d="M143,18.9c2.2,0.6,4,2.6,4,5.6c0,4.6-3.6,7.3-8.8,7.3h-14.4V6.4h13.8c5.7,0,8.8,2.7,8.8,7.4
			C146.4,16.1,145.1,18.1,143,18.9L143,18.9z M129,16.9h8.1c3,0,4.1-0.9,4.1-2.9c0-1.9-1.2-3-4.1-3H129V16.9z M141.8,24.3
			c0-2-1.1-3-4.1-3H129v5.9h8.7C140.8,27.2,141.8,26.2,141.8,24.3z"/>
		<path class="st0" d="M175.4,27.6c-2.4,2.9-6.2,4.8-10.9,4.8c-8.2,0-13.9-5.8-13.9-13.2c0-7.7,5.9-13.3,13.9-13.3
			c4.6,0,8.4,1.8,10.9,4.7l-3.9,2.9c-1.5-1.9-3.8-3-7-3c-5.5,0-8.7,3.4-8.7,8.6c0,5.1,3.2,8.6,8.7,8.6c3,0,5.4-1.1,6.9-2.9
			L175.4,27.6z"/>
	</g>
	<path id="XMLID_00000101802191362343798230000014859878483030465983_" class="st0" d="M51.9,0v16.6c0,18.9,24.9-6.6,24.9-6.6
		L72,9.7l8-2.1l-2.1,8l-0.3-4.9c0,0-25.6,24.8-6.5,24.8h16.4V0H51.9z"/>
</g>
</svg>
